<svg id="eNIsi02vrkd1" xmlns="http://www.w3.org/2000/svg" xmlns:xlink="http://www.w3.org/1999/xlink" viewBox="0 0 300 300" shape-rendering="geometricPrecision" text-rendering="geometricPrecision" project-id="30e4ca39978b47048aae1576ebf953d4" export-id="25e618d2c61b4386ba6c7374a780aca9" cached="false"><defs><linearGradient id="eNIsi02vrkd2-stroke" x1="4.282913" y1="3.681212" x2="4.288996" y2="-4.275957" spreadMethod="pad" gradientUnits="objectBoundingBox" gradientTransform="translate(0 0)"><stop id="eNIsi02vrkd2-stroke-0" offset="0%" stop-color="#00ff1f"/><stop id="eNIsi02vrkd2-stroke-1" offset="100%" stop-color="#005aff"/></linearGradient><linearGradient id="eNIsi02vrkd3-fill" x1="0" y1="0.5" x2="1" y2="0.5" spreadMethod="pad" gradientUnits="objectBoundingBox" gradientTransform="translate(0 0)"><stop id="eNIsi02vrkd3-fill-0" offset="0%" stop-color="#00ff67"/><stop id="eNIsi02vrkd3-fill-1" offset="100%" stop-color="#0067ff"/></linearGradient><linearGradient id="eNIsi02vrkd3-stroke" x1="4.282913" y1="3.681212" x2="4.288996" y2="-4.275957" spreadMethod="pad" gradientUnits="objectBoundingBox" gradientTransform="translate(0 0)"><stop id="eNIsi02vrkd3-stroke-0" offset="0%" stop-color="#00ff1f"/><stop id="eNIsi02vrkd3-stroke-1" offset="100%" stop-color="#005aff"/></linearGradient><linearGradient id="eNIsi02vrkd4-fill" x1="0" y1="0.5" x2="1" y2="0.5" spreadMethod="pad" gradientUnits="objectBoundingBox" gradientTransform="translate(0 0)"><stop id="eNIsi02vrkd4-fill-0" offset="0%" stop-color="#00ff67"/><stop id="eNIsi02vrkd4-fill-1" offset="100%" stop-color="#0067ff"/></linearGradient><linearGradient id="eNIsi02vrkd4-stroke" x1="4.282913" y1="3.681212" x2="4.288996" y2="-4.275957" spreadMethod="pad" gradientUnits="objectBoundingBox" gradientTransform="translate(0 0)"><stop id="eNIsi02vrkd4-stroke-0" offset="0%" stop-color="#00ff1f"/><stop id="eNIsi02vrkd4-stroke-1" offset="100%" stop-color="#005aff"/></linearGradient><linearGradient id="eNIsi02vrkd5-fill" x1="0" y1="0.5" x2="1" y2="0.5" spreadMethod="pad" gradientUnits="objectBoundingBox" gradientTransform="translate(0 0)"><stop id="eNIsi02vrkd5-fill-0" offset="0%" stop-color="#00ff67"/><stop id="eNIsi02vrkd5-fill-1" offset="100%" stop-color="#0067ff"/></linearGradient><linearGradient id="eNIsi02vrkd5-stroke" x1="4.282913" y1="3.681212" x2="4.288996" y2="-4.275957" spreadMethod="pad" gradientUnits="objectBoundingBox" gradientTransform="translate(0 0)"><stop id="eNIsi02vrkd5-stroke-0" offset="0%" stop-color="#00ff1f"/><stop id="eNIsi02vrkd5-stroke-1" offset="100%" stop-color="#005aff"/></linearGradient><linearGradient id="eNIsi02vrkd6-fill" x1="0" y1="0.5" x2="1" y2="0.5" spreadMethod="pad" gradientUnits="objectBoundingBox" gradientTransform="translate(0 0)"><stop id="eNIsi02vrkd6-fill-0" offset="0%" stop-color="#00ff67"/><stop id="eNIsi02vrkd6-fill-1" offset="100%" stop-color="#0067ff"/></linearGradient><linearGradient id="eNIsi02vrkd6-stroke" x1="4.282913" y1="3.681212" x2="4.288996" y2="-4.275957" spreadMethod="pad" gradientUnits="objectBoundingBox" gradientTransform="translate(0 0)"><stop id="eNIsi02vrkd6-stroke-0" offset="0%" stop-color="#00ff1f"/><stop id="eNIsi02vrkd6-stroke-1" offset="100%" stop-color="#005aff"/></linearGradient></defs><path d="M164.66365,81.54803v16.74528h67.294439L200.11246,132.19908h-35.44881c-14.57208,81.77273,35.974186,151.582233,73.549926,77.122523l-21.64917-15.033513-.388013-19.612012L275.49131,186.13457c10.13722,30.41165-51.017,151.09929-125.39974,64.40228l-.04578-.54307-.04578.54307C75.61727,337.23386,14.46305,216.54622,24.60027,186.13457l59.688897-12.53401v20.68753L62.40338,209.321603C100.38962,284.446133,150,213.97181,135.42793,132.19908h-18.446296-16.592014L69.759375,98.29331h13.924955h51.7436v-16.74528l-11.33116-6.52306l6.11896-19.27004l19.87584-16.59526l19.61874,16.59526l6.0019,19.27004-11.04856,6.52306ZM140.14844,67.82827L150,75.02497l9.87372-7.1967L150,55.75493l-9.85156,12.07334Z" transform="translate(-.452719-9.217886)" fill="#222" stroke="url(#eNIsi02vrkd2-stroke)"/><path d="M116.93585,122.939802L69.114776,89.075424l30.330986,33.90577c-1.126883.461409,9.826467-.019801,17.490088-.041392Z" transform="translate(.491139 0)" fill="url(#eNIsi02vrkd3-fill)" stroke="url(#eNIsi02vrkd3-stroke)"/><path d="M69.114776,89.075424l31.22906,33.864378h16.592014L69.114776,89.075424" transform="matrix(-1 0 0 1 300.637751 0)" fill="url(#eNIsi02vrkd4-fill)" stroke="url(#eNIsi02vrkd4-stroke)"/><path d="M83.638549,164.823392l.006021,19.612012-8.999177,5.30333l8.993156-24.915342Z" transform="translate(.491137 0.6348)" fill="url(#eNIsi02vrkd5-fill)" stroke="url(#eNIsi02vrkd5-stroke)"/><path d="M83.638549,164.823392l.006021,19.612012-8.999177,5.30333l8.993156-24.915342Z" transform="matrix(-1 0 0 1 299.667503 0.6348)" fill="url(#eNIsi02vrkd6-fill)" stroke="url(#eNIsi02vrkd6-stroke)"/></svg>
