<svg id="eUteV1XyRS01" xmlns="http://www.w3.org/2000/svg" xmlns:xlink="http://www.w3.org/1999/xlink" viewBox="0 0 900 900" shape-rendering="geometricPrecision" text-rendering="geometricPrecision" project-id="173ea09a8e8c408d813d7ebf44e95be8" export-id="f4756bdb2c6f46d8a4b907ac823f88dc" cached="false">
   <g transform="matrix(-.005131-.999987-.999987 0.005131 2299.950428 938.087244)">
      <g transform="matrix(-1 0.000308-.000308-1 489.878886 2756.23054)">
         <g transform="translate(.000001 0)">
            <g transform="translate(.000048 152.234828)">
               <path d="M0,599.711987l100.414932.444803L299.506905,499.992306h100.64474" transform="translate(0 0.661703)" fill="none" stroke="#3f5787" stroke-width="8"/>
               <ellipse rx="10.40389" ry="10.127657" transform="translate(410.555536 499.996621)" fill="none" stroke="#3f5787" stroke-width="8"/>
            </g>
            <g transform="translate(.000048 295.789282)">
               <path d="M0,599.711987l100.414932.444803L299.506905,499.992306h100.64474" transform="translate(0 0.661703)" fill="none" stroke="#3f5787" stroke-width="8"/>
               <ellipse rx="10.40389" ry="10.127657" transform="translate(410.555536 499.996621)" fill="none" stroke="#3f5787" stroke-width="8"/>
            </g>
            <g transform="translate(.000016 367.566514)">
               <path d="M0,599.711987l100.414932.444803L299.506905,499.992306h100.64474" transform="translate(0 0.661703)" fill="none" stroke="#3f5787" stroke-width="8"/>
               <ellipse rx="10.40389" ry="10.127657" transform="translate(410.555536 499.996621)" fill="none" stroke="#3f5787" stroke-width="8"/>
            </g>
            <g transform="translate(.000001 400.171465)">
               <path d="M0,599.711987l100.414932.444803L299.506905,499.992306h100.64474" transform="translate(0 0.661703)" fill="none" stroke="#3f5787" stroke-width="8"/>
               <ellipse rx="10.40389" ry="10.127657" transform="translate(410.555536 499.996621)" fill="none" stroke="#3f5787" stroke-width="8"/>
            </g>
            <g transform="translate(.000032 328.39423)">
               <path d="M0,599.711987l100.414932.444803L299.506905,499.992306h100.64474" transform="translate(0 0.661703)" fill="none" stroke="#3f5787" stroke-width="8"/>
               <ellipse rx="10.40389" ry="10.127657" transform="translate(410.555536 499.996621)" fill="none" stroke="#3f5787" stroke-width="8"/>
            </g>
            <g transform="translate(.000016 224.012061)">
               <path d="M0,599.711987l100.414932.444803L299.506905,499.992306h100.64474" transform="translate(0 0.661703)" fill="none" stroke="#3f5787" stroke-width="8"/>
               <ellipse rx="10.40389" ry="10.127657" transform="translate(410.555536 499.996621)" fill="none" stroke="#3f5787" stroke-width="8"/>
            </g>
            <g transform="translate(0 256.61701)">
               <path d="M0,599.711987l100.414932.444803L299.506905,499.992306h100.64474" transform="translate(0 0.661703)" fill="none" stroke="#3f5787" stroke-width="8"/>
               <ellipse rx="10.40389" ry="10.127657" transform="translate(410.555536 499.996621)" fill="none" stroke="#3f5787" stroke-width="8"/>
            </g>
            <g transform="translate(.000032 184.839777)">
               <path d="M0,599.711987l100.414932.444803L299.506905,499.992306h100.64474" transform="translate(0 0.661703)" fill="none" stroke="#3f5787" stroke-width="8"/>
               <ellipse rx="10.40389" ry="10.127657" transform="translate(410.555536 499.996621)" fill="none" stroke="#3f5787" stroke-width="8"/>
            </g>
         </g>
         <g transform="translate(.000048 152.234828)">
            <path d="M0,599.711987l100.414932.444803L299.506905,499.992306h100.64474" transform="translate(0 0.661703)" fill="none" stroke="#3f5787" stroke-width="8"/>
            <ellipse rx="10.40389" ry="10.127657" transform="translate(410.555536 499.996621)" fill="none" stroke="#3f5787" stroke-width="8"/>
         </g>
         <g transform="translate(.000048 295.789282)">
            <path d="M0,599.711987l100.414932.444803L299.506905,499.992306h100.64474" transform="translate(0 0.661703)" fill="none" stroke="#3f5787" stroke-width="8"/>
            <ellipse rx="10.40389" ry="10.127657" transform="translate(410.555536 499.996621)" fill="none" stroke="#3f5787" stroke-width="8"/>
         </g>
         <g transform="translate(.000016 367.566514)">
            <path d="M0,599.711987l100.414932.444803L299.506905,499.992306h100.64474" transform="translate(0 0.661703)" fill="none" stroke="#3f5787" stroke-width="8"/>
            <ellipse rx="10.40389" ry="10.127657" transform="translate(410.555536 499.996621)" fill="none" stroke="#3f5787" stroke-width="8"/>
         </g>
         <g transform="translate(.000001 400.171465)">
            <path d="M0,599.711987l100.414932.444803L299.506905,499.992306h100.64474" transform="translate(0 0.661703)" fill="none" stroke="#3f5787" stroke-width="8"/>
            <ellipse rx="10.40389" ry="10.127657" transform="translate(410.555536 499.996621)" fill="none" stroke="#3f5787" stroke-width="8"/>
         </g>
      </g>
      <g transform="translate(-1643.6887 670.86269)">
         <g transform="translate(2384.696656 585.611537)">
            <path d="M0,499.334918l400.151645.657388" transform="matrix(1.630428 0 0 1-252.2668 0.004315)" fill="none" stroke="#3f5787" stroke-width="8"/>
            <ellipse rx="10.40389" ry="10.127657" transform="translate(410.555536 499.996621)" fill="none" stroke="#3f5787" stroke-width="8"/>
         </g>
         <g transform="translate(2384.911129 618.046771)">
            <path d="M0,499.334918l400.151645.657388" transform="matrix(1.630428 0 0 1-252.2668 0.004315)" fill="none" stroke="#3f5787" stroke-width="8"/>
            <ellipse rx="10.40389" ry="10.127657" transform="translate(410.555536 499.996621)" fill="none" stroke="#3f5787" stroke-width="8"/>
         </g>
         <g transform="translate(2384.051805 657.197449)">
            <path d="M0,499.334918l400.151645.657388" transform="matrix(1.630428 0 0 1-252.2668 0.004315)" fill="none" stroke="#3f5787" stroke-width="8"/>
            <ellipse rx="10.40389" ry="10.127657" transform="translate(410.555536 499.996621)" fill="none" stroke="#3f5787" stroke-width="8"/>
         </g>
         <g transform="translate(2385.317942 689.84191)">
            <path d="M0,499.334918l400.151645.657388" transform="matrix(1.630428 0 0 1-252.2668 0.004315)" fill="none" stroke="#3f5787" stroke-width="8"/>
            <ellipse rx="10.40389" ry="10.127657" transform="translate(410.555536 499.996621)" fill="none" stroke="#3f5787" stroke-width="8"/>
         </g>
         <g transform="translate(2384.36409 833.436455)">
            <path d="M0,499.334918l400.151645.657388" transform="matrix(1.630428 0 0 1-252.2668 0.004315)" fill="none" stroke="#3f5787" stroke-width="8"/>
            <ellipse rx="10.40389" ry="10.127657" transform="translate(410.555536 499.996621)" fill="none" stroke="#3f5787" stroke-width="8"/>
         </g>
         <g transform="translate(2385.28071 800.811985)">
            <path d="M0,499.334918l400.151645.657388" transform="matrix(1.630428 0 0 1-252.2668 0.004315)" fill="none" stroke="#3f5787" stroke-width="8"/>
            <ellipse rx="10.40389" ry="10.127657" transform="translate(410.555536 499.996621)" fill="none" stroke="#3f5787" stroke-width="8"/>
         </g>
         <g transform="translate(2385.454183 761.631937)">
            <path d="M0,499.334918l400.151645.657388" transform="matrix(1.630428 0 0 1-252.2668 0.004315)" fill="none" stroke="#3f5787" stroke-width="8"/>
            <ellipse rx="10.40389" ry="10.127657" transform="translate(410.555536 499.996621)" fill="none" stroke="#3f5787" stroke-width="8"/>
         </g>
         <g transform="translate(2385.136104 729.064763)">
            <path d="M0,499.334918l400.151645.657388" transform="matrix(1.630428 0 0 1-252.2668 0.004315)" fill="none" stroke="#3f5787" stroke-width="8"/>
            <ellipse rx="10.40389" ry="10.127657" transform="translate(410.555536 499.996621)" fill="none" stroke="#3f5787" stroke-width="8"/>
         </g>
      </g>
   </g>
</svg>
